<svg width="400" height="200" viewBox="0 0 400 200" xmlns="http://www.w3.org/2000/svg">
  <defs>
    <!-- Main gradient -->
    <linearGradient id="mainGradient" x1="0%" y1="0%" x2="100%" y2="100%">
      <stop offset="0%" style="stop-color:#6366f1;stop-opacity:1" />
      <stop offset="50%" style="stop-color:#a855f7;stop-opacity:1" />
      <stop offset="100%" style="stop-color:#ec4899;stop-opacity:1" />
    </linearGradient>
    
    <!-- Secondary gradient -->
    <linearGradient id="secondaryGradient" x1="0%" y1="0%" x2="100%" y2="100%">
      <stop offset="0%" style="stop-color:#22d3ee;stop-opacity:1" />
      <stop offset="100%" style="stop-color:#3b82f6;stop-opacity:1" />
    </linearGradient>
    
    <!-- Sparkle gradient -->
    <linearGradient id="sparkleGradient" x1="0%" y1="0%" x2="100%" y2="100%">
      <stop offset="0%" style="stop-color:#fde047;stop-opacity:1" />
      <stop offset="100%" style="stop-color:#fbbf24;stop-opacity:1" />
    </linearGradient>
    
    <!-- Text gradient -->
    <linearGradient id="textGradient" x1="0%" y1="0%" x2="100%" y2="0%">
      <stop offset="0%" style="stop-color:#ffffff;stop-opacity:1" />
      <stop offset="50%" style="stop-color:#e0e7ff;stop-opacity:1" />
      <stop offset="100%" style="stop-color:#f3e8ff;stop-opacity:1" />
    </linearGradient>
    
    <!-- AI text gradient -->
    <linearGradient id="aiGradient" x1="0%" y1="0%" x2="100%" y2="0%">
      <stop offset="0%" style="stop-color:#818cf8;stop-opacity:1" />
      <stop offset="50%" style="stop-color:#a855f7;stop-opacity:1" />
      <stop offset="100%" style="stop-color:#ec4899;stop-opacity:1" />
    </linearGradient>
    
    <!-- Shadow filter -->
    <filter id="shadow" x="-50%" y="-50%" width="200%" height="200%">
      <feGaussianBlur in="SourceAlpha" stdDeviation="3"/>
      <feOffset dx="0" dy="4" result="offsetblur"/>
      <feComponentTransfer>
        <feFuncA type="linear" slope="0.5"/>
      </feComponentTransfer>
      <feMerge>
        <feMergeNode/>
        <feMergeNode in="SourceGraphic"/>
      </feMerge>
    </filter>
  </defs>
  
  <!-- Logo icon -->
  <g transform="translate(40, 40)">
    <!-- Main speech bubble -->
    <rect x="0" y="0" width="120" height="120" rx="30" fill="url(#mainGradient)" filter="url(#shadow)"/>
    
    <!-- Highlight overlay -->
    <rect x="0" y="0" width="120" height="120" rx="30" fill="url(#mainGradient)" opacity="0.2"/>
    
    <!-- MessageSquare icon -->
    <path d="M 30 30 L 90 30 L 90 90 L 60 105 L 30 90 Z" fill="white" opacity="0.95"/>
    <path d="M 40 40 L 80 40 L 80 80 L 60 88 L 40 80 Z" fill="none" stroke="white" stroke-width="3" opacity="0.8"/>
    
    <!-- Sparkle icon -->
    <circle cx="108" cy="12" r="10" fill="url(#sparkleGradient)"/>
    <path d="M 108 0 L 108 6 M 108 18 L 108 24 M 96 12 L 102 12 M 114 12 L 120 12 M 98 4 L 102 8 M 114 8 L 118 4 M 98 20 L 102 16 M 114 16 L 118 20" stroke="#1e293b" stroke-width="2" stroke-linecap="round"/>
    
    <!-- Small secondary speech bubble -->
    <rect x="100" y="100" width="40" height="40" rx="10" fill="url(#secondaryGradient)" stroke="#0f172a" stroke-width="3"/>
    <circle cx="120" cy="120" r="8" fill="white"/>
  </g>
  
  <!-- Text: Biseda -->
  <text x="200" y="100" font-family="Arial, sans-serif" font-size="64" font-weight="bold" fill="url(#textGradient)">
    Biseda
  </text>
  
  <!-- Text: .ai -->
  <text x="200" y="160" font-family="Arial, sans-serif" font-size="48" font-weight="bold" fill="url(#aiGradient)">
    .ai
  </text>
</svg>

