<?xml version="1.0" encoding="UTF-8"?>
<svg width="1024" height="1024" viewBox="0 0 120 120" xmlns="http://www.w3.org/2000/svg">
  <defs>
    <!-- Main gradient -->
    <linearGradient id="mainGradient" x1="0%" y1="0%" x2="100%" y2="100%">
      <stop offset="0%" style="stop-color:#6366f1;stop-opacity:1" />
      <stop offset="50%" style="stop-color:#a855f7;stop-opacity:1" />
      <stop offset="100%" style="stop-color:#ec4899;stop-opacity:1" />
    </linearGradient>
    
    <!-- Secondary gradient -->
    <linearGradient id="secondaryGradient" x1="0%" y1="0%" x2="100%" y2="100%">
      <stop offset="0%" style="stop-color:#22d3ee;stop-opacity:1" />
      <stop offset="100%" style="stop-color:#3b82f6;stop-opacity:1" />
    </linearGradient>
    
    <!-- Sparkle gradient -->
    <linearGradient id="sparkleGradient" x1="0%" y1="0%" x2="100%" y2="100%">
      <stop offset="0%" style="stop-color:#fde047;stop-opacity:1" />
      <stop offset="100%" style="stop-color:#fbbf24;stop-opacity:1" />
    </linearGradient>
    
    <!-- Shadow filter -->
    <filter id="shadow" x="-50%" y="-50%" width="200%" height="200%">
      <feGaussianBlur in="SourceAlpha" stdDeviation="3"/>
      <feOffset dx="0" dy="4" result="offsetblur"/>
      <feComponentTransfer>
        <feFuncA type="linear" slope="0.5"/>
      </feComponentTransfer>
      <feMerge>
        <feMergeNode/>
        <feMergeNode in="SourceGraphic"/>
      </feMerge>
    </filter>
  </defs>
  
  <!-- Background (full square) -->
  <rect x="0" y="0" width="120" height="120" rx="24" fill="url(#mainGradient)"/>
  
  <!-- Main speech bubble -->
  <rect x="12" y="12" width="96" height="96" rx="24" fill="url(#mainGradient)" filter="url(#shadow)"/>
  
  <!-- Highlight overlay -->
  <rect x="12" y="12" width="96" height="96" rx="24" fill="url(#mainGradient)" opacity="0.2"/>
  
  <!-- MessageSquare icon (simplified) -->
  <path d="M 36 36 L 84 36 L 84 72 L 60 84 L 36 72 Z" fill="white" opacity="0.95"/>
  <path d="M 42 42 L 78 42 L 78 66 L 60 72 L 42 66 Z" fill="none" stroke="white" stroke-width="2" opacity="0.8"/>
  
  <!-- Sparkle icon (top-right) -->
  <circle cx="96" cy="24" r="8" fill="url(#sparkleGradient)"/>
  <path d="M 96 16 L 96 20 M 96 28 L 96 32 M 88 24 L 92 24 M 100 24 L 104 24 M 90 18 L 92 20 M 102 20 L 104 18 M 90 30 L 92 28 M 102 28 L 104 30" stroke="#1e293b" stroke-width="1.5" stroke-linecap="round"/>
  
  <!-- Small secondary speech bubble (bottom-right) -->
  <rect x="88" y="88" width="32" height="32" rx="8" fill="url(#secondaryGradient)" stroke="#0f172a" stroke-width="2"/>
  <circle cx="104" cy="104" r="6" fill="white"/>
</svg>